<mxfile host="app.diagrams.net" modified="2023-03-05T12:50:07.276Z" agent="5.0 (Windows NT 10.0; Win64; x64) AppleWebKit/537.36 (KHTML, like Gecko) Chrome/109.0.0.0 Safari/537.36" etag="H6FfLujEZqx2vmA9s2c4" version="21.0.2" type="github">
  <diagram name="Halaman-1" id="3-tn1mt2gIGYMeETT_1K">
    <mxGraphModel dx="1120" dy="452" grid="1" gridSize="10" guides="1" tooltips="1" connect="1" arrows="1" fold="1" page="1" pageScale="1" pageWidth="1169" pageHeight="1654" math="0" shadow="0">
      <root>
        <mxCell id="0" />
        <mxCell id="1" parent="0" />
        <mxCell id="YKApNb39TdFrqlg4vSPL-9" value="Mengelola" style="rhombus;whiteSpace=wrap;html=1;" vertex="1" parent="1">
          <mxGeometry x="445" y="390" width="140" height="90" as="geometry" />
        </mxCell>
        <mxCell id="YKApNb39TdFrqlg4vSPL-11" value="ADMIN" style="rounded=0;whiteSpace=wrap;html=1;" vertex="1" parent="1">
          <mxGeometry x="455" y="220" width="120" height="60" as="geometry" />
        </mxCell>
        <mxCell id="YKApNb39TdFrqlg4vSPL-12" value="KONSUMEN" style="rounded=0;whiteSpace=wrap;html=1;" vertex="1" parent="1">
          <mxGeometry x="710" y="260" width="120" height="60" as="geometry" />
        </mxCell>
        <mxCell id="YKApNb39TdFrqlg4vSPL-13" value="KARYAWAN" style="rounded=0;whiteSpace=wrap;html=1;" vertex="1" parent="1">
          <mxGeometry x="200" y="260" width="120" height="60" as="geometry" />
        </mxCell>
        <mxCell id="YKApNb39TdFrqlg4vSPL-15" value="" style="endArrow=classic;html=1;rounded=0;entryX=0.5;entryY=1;entryDx=0;entryDy=0;exitX=0.5;exitY=0;exitDx=0;exitDy=0;" edge="1" parent="1" source="YKApNb39TdFrqlg4vSPL-9" target="YKApNb39TdFrqlg4vSPL-11">
          <mxGeometry width="50" height="50" relative="1" as="geometry">
            <mxPoint x="510" y="390" as="sourcePoint" />
            <mxPoint x="560" y="340" as="targetPoint" />
            <Array as="points" />
          </mxGeometry>
        </mxCell>
        <mxCell id="YKApNb39TdFrqlg4vSPL-16" value="" style="endArrow=classic;html=1;rounded=0;entryX=0.5;entryY=1;entryDx=0;entryDy=0;exitX=1;exitY=0.5;exitDx=0;exitDy=0;" edge="1" parent="1" source="YKApNb39TdFrqlg4vSPL-9" target="YKApNb39TdFrqlg4vSPL-12">
          <mxGeometry width="50" height="50" relative="1" as="geometry">
            <mxPoint x="580" y="440" as="sourcePoint" />
            <mxPoint x="630" y="390" as="targetPoint" />
            <Array as="points" />
          </mxGeometry>
        </mxCell>
        <mxCell id="YKApNb39TdFrqlg4vSPL-17" value="" style="endArrow=classic;html=1;rounded=0;entryX=0.5;entryY=1;entryDx=0;entryDy=0;exitX=0;exitY=0.5;exitDx=0;exitDy=0;" edge="1" parent="1" source="YKApNb39TdFrqlg4vSPL-9" target="YKApNb39TdFrqlg4vSPL-13">
          <mxGeometry width="50" height="50" relative="1" as="geometry">
            <mxPoint x="440" y="440" as="sourcePoint" />
            <mxPoint x="490" y="390" as="targetPoint" />
            <Array as="points">
              <mxPoint x="290" y="340" />
            </Array>
          </mxGeometry>
        </mxCell>
        <mxCell id="YKApNb39TdFrqlg4vSPL-18" value="password" style="ellipse;whiteSpace=wrap;html=1;" vertex="1" parent="1">
          <mxGeometry x="570" y="70" width="120" height="70" as="geometry" />
        </mxCell>
        <mxCell id="YKApNb39TdFrqlg4vSPL-19" value="username" style="ellipse;whiteSpace=wrap;html=1;" vertex="1" parent="1">
          <mxGeometry x="340" y="70" width="120" height="70" as="geometry" />
        </mxCell>
        <mxCell id="YKApNb39TdFrqlg4vSPL-23" value="" style="endArrow=none;html=1;rounded=0;entryX=0.4;entryY=1;entryDx=0;entryDy=0;entryPerimeter=0;" edge="1" parent="1" target="YKApNb39TdFrqlg4vSPL-18">
          <mxGeometry width="50" height="50" relative="1" as="geometry">
            <mxPoint x="520" y="220" as="sourcePoint" />
            <mxPoint x="570" y="170" as="targetPoint" />
          </mxGeometry>
        </mxCell>
        <mxCell id="YKApNb39TdFrqlg4vSPL-24" value="" style="endArrow=none;html=1;rounded=0;entryX=0.5;entryY=1;entryDx=0;entryDy=0;exitX=0.458;exitY=0;exitDx=0;exitDy=0;exitPerimeter=0;" edge="1" parent="1" source="YKApNb39TdFrqlg4vSPL-11" target="YKApNb39TdFrqlg4vSPL-19">
          <mxGeometry width="50" height="50" relative="1" as="geometry">
            <mxPoint x="520" y="220" as="sourcePoint" />
            <mxPoint x="570" y="170" as="targetPoint" />
          </mxGeometry>
        </mxCell>
        <mxCell id="YKApNb39TdFrqlg4vSPL-25" value="" style="endArrow=none;html=1;rounded=0;" edge="1" parent="1">
          <mxGeometry width="50" height="50" relative="1" as="geometry">
            <mxPoint x="780" y="260" as="sourcePoint" />
            <mxPoint x="980" y="200" as="targetPoint" />
          </mxGeometry>
        </mxCell>
        <mxCell id="YKApNb39TdFrqlg4vSPL-26" value="" style="endArrow=none;html=1;rounded=0;entryX=0.5;entryY=1;entryDx=0;entryDy=0;" edge="1" parent="1" target="YKApNb39TdFrqlg4vSPL-31">
          <mxGeometry width="50" height="50" relative="1" as="geometry">
            <mxPoint x="780" y="260" as="sourcePoint" />
            <mxPoint x="890" y="160" as="targetPoint" />
          </mxGeometry>
        </mxCell>
        <mxCell id="YKApNb39TdFrqlg4vSPL-27" value="" style="endArrow=none;html=1;rounded=0;" edge="1" parent="1">
          <mxGeometry width="50" height="50" relative="1" as="geometry">
            <mxPoint x="780" y="260" as="sourcePoint" />
            <mxPoint x="780" y="140" as="targetPoint" />
          </mxGeometry>
        </mxCell>
        <mxCell id="YKApNb39TdFrqlg4vSPL-28" value="" style="endArrow=none;html=1;rounded=0;" edge="1" parent="1">
          <mxGeometry width="50" height="50" relative="1" as="geometry">
            <mxPoint x="780" y="260" as="sourcePoint" />
            <mxPoint x="710" y="190" as="targetPoint" />
          </mxGeometry>
        </mxCell>
        <mxCell id="YKApNb39TdFrqlg4vSPL-29" value="id" style="ellipse;whiteSpace=wrap;html=1;" vertex="1" parent="1">
          <mxGeometry x="670" y="150" width="80" height="40" as="geometry" />
        </mxCell>
        <mxCell id="YKApNb39TdFrqlg4vSPL-30" value="nama" style="ellipse;whiteSpace=wrap;html=1;" vertex="1" parent="1">
          <mxGeometry x="730" y="90" width="100" height="50" as="geometry" />
        </mxCell>
        <mxCell id="YKApNb39TdFrqlg4vSPL-31" value="alamat" style="ellipse;whiteSpace=wrap;html=1;" vertex="1" parent="1">
          <mxGeometry x="850" y="110" width="110" height="50" as="geometry" />
        </mxCell>
        <mxCell id="YKApNb39TdFrqlg4vSPL-32" value="no_telp" style="ellipse;whiteSpace=wrap;html=1;" vertex="1" parent="1">
          <mxGeometry x="970" y="160" width="100" height="50" as="geometry" />
        </mxCell>
        <mxCell id="YKApNb39TdFrqlg4vSPL-33" value="" style="endArrow=none;html=1;rounded=0;" edge="1" parent="1">
          <mxGeometry width="50" height="50" relative="1" as="geometry">
            <mxPoint x="260" y="260" as="sourcePoint" />
            <mxPoint x="330" y="230" as="targetPoint" />
          </mxGeometry>
        </mxCell>
        <mxCell id="YKApNb39TdFrqlg4vSPL-34" value="" style="endArrow=none;html=1;rounded=0;" edge="1" parent="1">
          <mxGeometry width="50" height="50" relative="1" as="geometry">
            <mxPoint x="260" y="260" as="sourcePoint" />
            <mxPoint x="310" y="190" as="targetPoint" />
          </mxGeometry>
        </mxCell>
        <mxCell id="YKApNb39TdFrqlg4vSPL-36" value="" style="endArrow=none;html=1;rounded=0;entryX=0.622;entryY=1.04;entryDx=0;entryDy=0;entryPerimeter=0;" edge="1" parent="1" target="YKApNb39TdFrqlg4vSPL-44">
          <mxGeometry width="50" height="50" relative="1" as="geometry">
            <mxPoint x="260" y="260" as="sourcePoint" />
            <mxPoint x="170" y="150" as="targetPoint" />
          </mxGeometry>
        </mxCell>
        <mxCell id="YKApNb39TdFrqlg4vSPL-37" value="" style="endArrow=none;html=1;rounded=0;" edge="1" parent="1" target="YKApNb39TdFrqlg4vSPL-45">
          <mxGeometry width="50" height="50" relative="1" as="geometry">
            <mxPoint x="260" y="260" as="sourcePoint" />
            <mxPoint x="110" y="170" as="targetPoint" />
          </mxGeometry>
        </mxCell>
        <mxCell id="YKApNb39TdFrqlg4vSPL-38" value="" style="endArrow=none;html=1;rounded=0;" edge="1" parent="1" target="YKApNb39TdFrqlg4vSPL-46">
          <mxGeometry width="50" height="50" relative="1" as="geometry">
            <mxPoint x="260" y="260" as="sourcePoint" />
            <mxPoint x="100" y="240" as="targetPoint" />
          </mxGeometry>
        </mxCell>
        <mxCell id="YKApNb39TdFrqlg4vSPL-39" value="id" style="ellipse;whiteSpace=wrap;html=1;" vertex="1" parent="1">
          <mxGeometry x="320" y="200" width="80" height="45" as="geometry" />
        </mxCell>
        <mxCell id="YKApNb39TdFrqlg4vSPL-40" value="no_telp" style="ellipse;whiteSpace=wrap;html=1;" vertex="1" parent="1">
          <mxGeometry x="270" y="140" width="90" height="50" as="geometry" />
        </mxCell>
        <mxCell id="YKApNb39TdFrqlg4vSPL-41" value="username" style="ellipse;whiteSpace=wrap;html=1;" vertex="1" parent="1">
          <mxGeometry x="200" y="70" width="100" height="50" as="geometry" />
        </mxCell>
        <mxCell id="YKApNb39TdFrqlg4vSPL-42" value="" style="endArrow=none;html=1;rounded=0;entryX=0.58;entryY=1.033;entryDx=0;entryDy=0;entryPerimeter=0;" edge="1" parent="1" target="YKApNb39TdFrqlg4vSPL-41">
          <mxGeometry width="50" height="50" relative="1" as="geometry">
            <mxPoint x="260" y="260" as="sourcePoint" />
            <mxPoint x="310" y="210" as="targetPoint" />
          </mxGeometry>
        </mxCell>
        <mxCell id="YKApNb39TdFrqlg4vSPL-44" value="nama" style="ellipse;whiteSpace=wrap;html=1;" vertex="1" parent="1">
          <mxGeometry x="110" y="100" width="90" height="50" as="geometry" />
        </mxCell>
        <mxCell id="YKApNb39TdFrqlg4vSPL-45" value="alamat" style="ellipse;whiteSpace=wrap;html=1;" vertex="1" parent="1">
          <mxGeometry x="32.5" y="150" width="90" height="50" as="geometry" />
        </mxCell>
        <mxCell id="YKApNb39TdFrqlg4vSPL-46" value="password" style="ellipse;whiteSpace=wrap;html=1;" vertex="1" parent="1">
          <mxGeometry x="30" y="220" width="95" height="50" as="geometry" />
        </mxCell>
        <mxCell id="YKApNb39TdFrqlg4vSPL-47" value="Mempunyai" style="rhombus;whiteSpace=wrap;html=1;" vertex="1" parent="1">
          <mxGeometry x="446.25" y="580" width="137.5" height="100" as="geometry" />
        </mxCell>
        <mxCell id="YKApNb39TdFrqlg4vSPL-49" value="PAKET" style="rounded=0;whiteSpace=wrap;html=1;" vertex="1" parent="1">
          <mxGeometry x="670" y="600" width="120" height="60" as="geometry" />
        </mxCell>
        <mxCell id="YKApNb39TdFrqlg4vSPL-50" value="TRANSAKSI" style="rounded=0;whiteSpace=wrap;html=1;" vertex="1" parent="1">
          <mxGeometry x="250" y="600" width="120" height="60" as="geometry" />
        </mxCell>
        <mxCell id="YKApNb39TdFrqlg4vSPL-51" value="" style="endArrow=none;html=1;rounded=0;entryX=0.5;entryY=1;entryDx=0;entryDy=0;exitX=0.5;exitY=0;exitDx=0;exitDy=0;" edge="1" parent="1" source="YKApNb39TdFrqlg4vSPL-47" target="YKApNb39TdFrqlg4vSPL-9">
          <mxGeometry width="50" height="50" relative="1" as="geometry">
            <mxPoint x="510" y="580" as="sourcePoint" />
            <mxPoint x="560" y="530" as="targetPoint" />
          </mxGeometry>
        </mxCell>
        <mxCell id="YKApNb39TdFrqlg4vSPL-52" value="" style="endArrow=none;html=1;rounded=0;entryX=0;entryY=0.5;entryDx=0;entryDy=0;" edge="1" parent="1" target="YKApNb39TdFrqlg4vSPL-49">
          <mxGeometry width="50" height="50" relative="1" as="geometry">
            <mxPoint x="583.75" y="630" as="sourcePoint" />
            <mxPoint x="633.75" y="580" as="targetPoint" />
          </mxGeometry>
        </mxCell>
        <mxCell id="YKApNb39TdFrqlg4vSPL-53" value="" style="endArrow=none;html=1;rounded=0;entryX=1;entryY=0.5;entryDx=0;entryDy=0;" edge="1" parent="1" target="YKApNb39TdFrqlg4vSPL-50">
          <mxGeometry width="50" height="50" relative="1" as="geometry">
            <mxPoint x="445" y="630" as="sourcePoint" />
            <mxPoint x="495" y="580" as="targetPoint" />
          </mxGeometry>
        </mxCell>
        <mxCell id="YKApNb39TdFrqlg4vSPL-54" value="" style="endArrow=none;html=1;rounded=0;exitX=1;exitY=0;exitDx=0;exitDy=0;entryX=0.5;entryY=1;entryDx=0;entryDy=0;" edge="1" parent="1" source="YKApNb39TdFrqlg4vSPL-50" target="YKApNb39TdFrqlg4vSPL-9">
          <mxGeometry width="50" height="50" relative="1" as="geometry">
            <mxPoint x="460" y="530" as="sourcePoint" />
            <mxPoint x="510" y="480" as="targetPoint" />
          </mxGeometry>
        </mxCell>
        <mxCell id="YKApNb39TdFrqlg4vSPL-55" value="" style="endArrow=none;html=1;rounded=0;exitX=0;exitY=0;exitDx=0;exitDy=0;entryX=0.5;entryY=1;entryDx=0;entryDy=0;" edge="1" parent="1" source="YKApNb39TdFrqlg4vSPL-49" target="YKApNb39TdFrqlg4vSPL-9">
          <mxGeometry width="50" height="50" relative="1" as="geometry">
            <mxPoint x="470" y="530" as="sourcePoint" />
            <mxPoint x="520" y="490" as="targetPoint" />
          </mxGeometry>
        </mxCell>
        <mxCell id="YKApNb39TdFrqlg4vSPL-56" value="" style="endArrow=none;html=1;rounded=0;" edge="1" parent="1">
          <mxGeometry width="50" height="50" relative="1" as="geometry">
            <mxPoint x="730" y="600" as="sourcePoint" />
            <mxPoint x="670" y="540" as="targetPoint" />
          </mxGeometry>
        </mxCell>
        <mxCell id="YKApNb39TdFrqlg4vSPL-57" value="" style="endArrow=none;html=1;rounded=0;entryX=0.5;entryY=1;entryDx=0;entryDy=0;" edge="1" parent="1" target="YKApNb39TdFrqlg4vSPL-66">
          <mxGeometry width="50" height="50" relative="1" as="geometry">
            <mxPoint x="730" y="600" as="sourcePoint" />
            <mxPoint x="730" y="500" as="targetPoint" />
          </mxGeometry>
        </mxCell>
        <mxCell id="YKApNb39TdFrqlg4vSPL-58" value="" style="endArrow=none;html=1;rounded=0;" edge="1" parent="1">
          <mxGeometry width="50" height="50" relative="1" as="geometry">
            <mxPoint x="310" y="600" as="sourcePoint" />
            <mxPoint x="330" y="470" as="targetPoint" />
          </mxGeometry>
        </mxCell>
        <mxCell id="YKApNb39TdFrqlg4vSPL-59" value="" style="endArrow=none;html=1;rounded=0;entryX=0.42;entryY=0.98;entryDx=0;entryDy=0;entryPerimeter=0;" edge="1" parent="1" target="YKApNb39TdFrqlg4vSPL-65">
          <mxGeometry width="50" height="50" relative="1" as="geometry">
            <mxPoint x="730" y="600" as="sourcePoint" />
            <mxPoint x="790" y="480" as="targetPoint" />
          </mxGeometry>
        </mxCell>
        <mxCell id="YKApNb39TdFrqlg4vSPL-60" value="" style="endArrow=none;html=1;rounded=0;entryX=0.442;entryY=1.02;entryDx=0;entryDy=0;entryPerimeter=0;" edge="1" parent="1" target="YKApNb39TdFrqlg4vSPL-76">
          <mxGeometry width="50" height="50" relative="1" as="geometry">
            <mxPoint x="310" y="600" as="sourcePoint" />
            <mxPoint x="380" y="520" as="targetPoint" />
          </mxGeometry>
        </mxCell>
        <mxCell id="YKApNb39TdFrqlg4vSPL-61" value="" style="endArrow=none;html=1;rounded=0;" edge="1" parent="1">
          <mxGeometry width="50" height="50" relative="1" as="geometry">
            <mxPoint x="730" y="600" as="sourcePoint" />
            <mxPoint x="820" y="530" as="targetPoint" />
          </mxGeometry>
        </mxCell>
        <mxCell id="YKApNb39TdFrqlg4vSPL-62" value="" style="endArrow=none;html=1;rounded=0;entryX=0;entryY=0.5;entryDx=0;entryDy=0;" edge="1" parent="1" target="YKApNb39TdFrqlg4vSPL-63">
          <mxGeometry width="50" height="50" relative="1" as="geometry">
            <mxPoint x="730" y="600" as="sourcePoint" />
            <mxPoint x="840" y="570" as="targetPoint" />
          </mxGeometry>
        </mxCell>
        <mxCell id="YKApNb39TdFrqlg4vSPL-63" value="harga" style="ellipse;whiteSpace=wrap;html=1;" vertex="1" parent="1">
          <mxGeometry x="840" y="550" width="100" height="50" as="geometry" />
        </mxCell>
        <mxCell id="YKApNb39TdFrqlg4vSPL-64" value="jml_hari" style="ellipse;whiteSpace=wrap;html=1;" vertex="1" parent="1">
          <mxGeometry x="810" y="490" width="100" height="50" as="geometry" />
        </mxCell>
        <mxCell id="YKApNb39TdFrqlg4vSPL-65" value="jenis" style="ellipse;whiteSpace=wrap;html=1;" vertex="1" parent="1">
          <mxGeometry x="760" y="430" width="100" height="50" as="geometry" />
        </mxCell>
        <mxCell id="YKApNb39TdFrqlg4vSPL-66" value="nama" style="ellipse;whiteSpace=wrap;html=1;" vertex="1" parent="1">
          <mxGeometry x="690" y="460" width="70" height="40" as="geometry" />
        </mxCell>
        <mxCell id="YKApNb39TdFrqlg4vSPL-67" value="id" style="ellipse;whiteSpace=wrap;html=1;" vertex="1" parent="1">
          <mxGeometry x="630" y="500" width="70" height="40" as="geometry" />
        </mxCell>
        <mxCell id="YKApNb39TdFrqlg4vSPL-69" value="" style="endArrow=none;html=1;rounded=0;" edge="1" parent="1">
          <mxGeometry width="50" height="50" relative="1" as="geometry">
            <mxPoint x="310" y="600" as="sourcePoint" />
            <mxPoint x="170" y="580" as="targetPoint" />
          </mxGeometry>
        </mxCell>
        <mxCell id="YKApNb39TdFrqlg4vSPL-70" value="" style="endArrow=none;html=1;rounded=0;" edge="1" parent="1">
          <mxGeometry width="50" height="50" relative="1" as="geometry">
            <mxPoint x="310" y="600" as="sourcePoint" />
            <mxPoint x="210" y="540" as="targetPoint" />
          </mxGeometry>
        </mxCell>
        <mxCell id="YKApNb39TdFrqlg4vSPL-71" value="" style="endArrow=none;html=1;rounded=0;" edge="1" parent="1">
          <mxGeometry width="50" height="50" relative="1" as="geometry">
            <mxPoint x="310" y="600" as="sourcePoint" />
            <mxPoint x="260" y="510" as="targetPoint" />
          </mxGeometry>
        </mxCell>
        <mxCell id="YKApNb39TdFrqlg4vSPL-72" value="id" style="ellipse;whiteSpace=wrap;html=1;" vertex="1" parent="1">
          <mxGeometry x="70" y="550" width="97.5" height="50" as="geometry" />
        </mxCell>
        <mxCell id="YKApNb39TdFrqlg4vSPL-73" value="id_konsumen" style="ellipse;whiteSpace=wrap;html=1;" vertex="1" parent="1">
          <mxGeometry x="120" y="500" width="100" height="50" as="geometry" />
        </mxCell>
        <mxCell id="YKApNb39TdFrqlg4vSPL-74" value="id paket" style="ellipse;whiteSpace=wrap;html=1;" vertex="1" parent="1">
          <mxGeometry x="195" y="460" width="110" height="50" as="geometry" />
        </mxCell>
        <mxCell id="YKApNb39TdFrqlg4vSPL-75" value="id tipe bayar" style="ellipse;whiteSpace=wrap;html=1;" vertex="1" parent="1">
          <mxGeometry x="280" y="420" width="110" height="50" as="geometry" />
        </mxCell>
        <mxCell id="YKApNb39TdFrqlg4vSPL-76" value="id status" style="ellipse;whiteSpace=wrap;html=1;" vertex="1" parent="1">
          <mxGeometry x="350" y="470" width="110" height="50" as="geometry" />
        </mxCell>
        <mxCell id="YKApNb39TdFrqlg4vSPL-77" value="" style="endArrow=none;html=1;rounded=0;exitX=0.39;exitY=-0.022;exitDx=0;exitDy=0;exitPerimeter=0;" edge="1" parent="1" source="YKApNb39TdFrqlg4vSPL-81">
          <mxGeometry width="50" height="50" relative="1" as="geometry">
            <mxPoint x="400" y="720" as="sourcePoint" />
            <mxPoint x="305" y="660" as="targetPoint" />
          </mxGeometry>
        </mxCell>
        <mxCell id="YKApNb39TdFrqlg4vSPL-78" value="" style="endArrow=none;html=1;rounded=0;exitX=0.5;exitY=0;exitDx=0;exitDy=0;" edge="1" parent="1" source="YKApNb39TdFrqlg4vSPL-82">
          <mxGeometry width="50" height="50" relative="1" as="geometry">
            <mxPoint x="380" y="780" as="sourcePoint" />
            <mxPoint x="305" y="660" as="targetPoint" />
          </mxGeometry>
        </mxCell>
        <mxCell id="YKApNb39TdFrqlg4vSPL-79" value="" style="endArrow=none;html=1;rounded=0;entryX=0.45;entryY=1;entryDx=0;entryDy=0;entryPerimeter=0;exitX=0.578;exitY=0;exitDx=0;exitDy=0;exitPerimeter=0;" edge="1" parent="1" source="YKApNb39TdFrqlg4vSPL-83" target="YKApNb39TdFrqlg4vSPL-50">
          <mxGeometry width="50" height="50" relative="1" as="geometry">
            <mxPoint x="290" y="750" as="sourcePoint" />
            <mxPoint x="300" y="660" as="targetPoint" />
            <Array as="points" />
          </mxGeometry>
        </mxCell>
        <mxCell id="YKApNb39TdFrqlg4vSPL-80" value="" style="endArrow=none;html=1;rounded=0;exitX=0.667;exitY=0.05;exitDx=0;exitDy=0;exitPerimeter=0;" edge="1" parent="1" source="YKApNb39TdFrqlg4vSPL-84">
          <mxGeometry width="50" height="50" relative="1" as="geometry">
            <mxPoint x="220" y="720" as="sourcePoint" />
            <mxPoint x="305" y="660" as="targetPoint" />
          </mxGeometry>
        </mxCell>
        <mxCell id="YKApNb39TdFrqlg4vSPL-81" value="total bayar" style="ellipse;whiteSpace=wrap;html=1;" vertex="1" parent="1">
          <mxGeometry x="350" y="737.5" width="100" height="45" as="geometry" />
        </mxCell>
        <mxCell id="YKApNb39TdFrqlg4vSPL-82" value="tgl keluar" style="ellipse;whiteSpace=wrap;html=1;" vertex="1" parent="1">
          <mxGeometry x="270" y="775" width="90" height="40" as="geometry" />
        </mxCell>
        <mxCell id="YKApNb39TdFrqlg4vSPL-83" value="tgl masuk" style="ellipse;whiteSpace=wrap;html=1;" vertex="1" parent="1">
          <mxGeometry x="200" y="740" width="90" height="40" as="geometry" />
        </mxCell>
        <mxCell id="YKApNb39TdFrqlg4vSPL-84" value="berat" style="ellipse;whiteSpace=wrap;html=1;" vertex="1" parent="1">
          <mxGeometry x="150" y="700" width="90" height="40" as="geometry" />
        </mxCell>
        <mxCell id="YKApNb39TdFrqlg4vSPL-85" value="TIPE BAYAR" style="rounded=0;whiteSpace=wrap;html=1;" vertex="1" parent="1">
          <mxGeometry x="455" y="775" width="120" height="60" as="geometry" />
        </mxCell>
        <mxCell id="YKApNb39TdFrqlg4vSPL-86" value="" style="endArrow=none;html=1;rounded=0;exitX=0.5;exitY=0;exitDx=0;exitDy=0;entryX=0.5;entryY=1;entryDx=0;entryDy=0;" edge="1" parent="1" source="YKApNb39TdFrqlg4vSPL-85" target="YKApNb39TdFrqlg4vSPL-47">
          <mxGeometry width="50" height="50" relative="1" as="geometry">
            <mxPoint x="470" y="730" as="sourcePoint" />
            <mxPoint x="520" y="680" as="targetPoint" />
          </mxGeometry>
        </mxCell>
        <mxCell id="YKApNb39TdFrqlg4vSPL-87" value="" style="endArrow=none;html=1;rounded=0;" edge="1" parent="1">
          <mxGeometry width="50" height="50" relative="1" as="geometry">
            <mxPoint x="460" y="890" as="sourcePoint" />
            <mxPoint x="510" y="835" as="targetPoint" />
          </mxGeometry>
        </mxCell>
        <mxCell id="YKApNb39TdFrqlg4vSPL-88" value="" style="endArrow=none;html=1;rounded=0;entryX=0.5;entryY=1;entryDx=0;entryDy=0;" edge="1" parent="1" target="YKApNb39TdFrqlg4vSPL-85">
          <mxGeometry width="50" height="50" relative="1" as="geometry">
            <mxPoint x="560" y="890" as="sourcePoint" />
            <mxPoint x="540" y="850" as="targetPoint" />
          </mxGeometry>
        </mxCell>
        <mxCell id="YKApNb39TdFrqlg4vSPL-89" value="nama" style="ellipse;whiteSpace=wrap;html=1;" vertex="1" parent="1">
          <mxGeometry x="520" y="890" width="90" height="40" as="geometry" />
        </mxCell>
        <mxCell id="YKApNb39TdFrqlg4vSPL-90" value="id" style="ellipse;whiteSpace=wrap;html=1;" vertex="1" parent="1">
          <mxGeometry x="410" y="890" width="90" height="40" as="geometry" />
        </mxCell>
      </root>
    </mxGraphModel>
  </diagram>
</mxfile>
